# xmcd
#
# Track frame offsets:
#	150
#	9528
#	20595
#	31778
#	42383
#	53070
#	63441
#	72751
#	83473
#	96272
#	109806
#	123404
#	135339
#	146794
#	157785
#	170417
#	181888
#	192982
#	206206
#	219769
#
# Disc length: 3106 seconds
#
# Revision: 4
# Processed by: cddbd v1.5.2PL0 Copyright (c) Steve Scherf et al.
# Submitted via: EasyCDDAExtractor 10.0.2.1
#
DISCID=0c0c2014
DTITLE=Waylon Jennings - RCA Country Legends [CD1]
DYEAR=2001
DGENRE=Country
TTITLE0=Stop The World (And Let Me Off)
TTITLE1=(That's What You Get) For Lovin' Me
TTITLE2=The Chokin' Kind
TTITLE3=Walk On Out Of My Mind
TTITLE4=Only Daddy That'll Walk The Line
TTITLE5=Yours Love
TTITLE6=Brown Eyed Handsome Man
TTITLE7=The Taker
TTITLE8=Cedartown, Georgia
TTITLE9=Sweet Dream Woman
TTITLE10=Pretend I Never Happened
TTITLE11=You Can Have Her
TTITLE12=You Ask Me To
TTITLE13=This Time
TTITLE14=I'm A Ramblin' Man
TTITLE15=Rainy Day Woman
TTITLE16=Dreaming My Dreams (With You)
TTITLE17=Are You Sure Hank Done It This Way
TTITLE18=Bob Wills Is Still The King
TTITLE19=Good Hearted Woman (Duet With Willie Nelson)
EXTD=Buddha Records
EXTT0=
EXTT1=
EXTT2=
EXTT3=
EXTT4=
EXTT5=
EXTT6=
EXTT7=
EXTT8=
EXTT9=
EXTT10=
EXTT11=
EXTT12=
EXTT13=
EXTT14=
EXTT15=
EXTT16=
EXTT17=
EXTT18=
EXTT19=
PLAYORDER=
